<svg width="76" height="46" viewBox="0 0 76 46" fill="none" xmlns="http://www.w3.org/2000/svg">
<g id="Logo">
<g id="Group">
<path id="Vector" d="M17.1191 11.6382C20.6223 9.91042 24.1096 8.60268 27.5494 8.34113C27.5732 7.73877 27.6049 7.14434 27.6287 6.54991C24.181 6.9145 20.7016 8.07958 17.2063 9.6885C17.1746 10.3384 17.1508 10.9883 17.1191 11.6382Z" fill="white"/>
<path id="Vector_2" d="M27.5899 9.69615C24.372 9.87844 21.1066 11.0594 17.8333 12.6524C17.8016 13.2944 17.7778 13.9443 17.7461 14.5943C21.0273 12.9219 24.2928 11.6459 27.5106 11.5349C27.5344 10.9167 27.5661 10.3064 27.5899 9.69615Z" fill="white"/>
<path id="Vector_3" d="M16.1279 18.7478C20.2097 16.481 24.2677 14.5234 28.2385 14.7928L28.3256 12.8986C24.3548 12.7242 20.2969 14.5551 16.223 16.7664C16.1913 17.4242 16.1676 18.0899 16.1359 18.7478H16.1279Z" fill="white"/>
<path id="Vector_4" d="M28.5952 19.5722C28.5635 20.2221 28.5397 20.8799 28.508 21.5378C19.8372 20.2697 10.6117 31.548 1.94092 30.2799L2.31343 28.3777C10.897 29.3763 20.0195 18.2328 28.5952 19.5722Z" fill="white"/>
<path id="Vector_5" d="M30.2367 23.3917C30.205 24.0574 30.1812 24.7153 30.1495 25.381C25.2593 23.4947 20.1393 26.6174 15.0351 29.3439C9.95472 32.1417 4.8981 34.5511 0 33.3305L0.37251 31.4363C10.0736 34.345 20.5514 19.9757 30.2367 23.3917Z" fill="white"/>
<path id="Vector_6" d="M29.3016 26.634C29.2699 27.2997 29.2382 27.9734 29.2144 28.6392C24.5145 27.4503 19.6322 30.4383 14.7738 32.8636C9.92321 35.3998 5.10437 37.3813 0.396484 36.8265L0.768995 34.9243C5.37384 35.6217 10.1134 33.458 14.8609 30.8742C19.7273 28.3221 24.6096 25.3341 29.3016 26.626V26.634Z" fill="white"/>
<path id="Vector_7" d="M11.88 42.0732L11.8008 43.9278C9.0109 44.7917 6.2369 45.3544 3.46289 45.9489L3.8037 44.2211C6.49052 43.7217 9.17734 43.048 11.8879 42.0732H11.88Z" fill="white"/>
<path id="Vector_8" d="M28.049 31.8805C23.5551 31.4842 18.9186 34.282 14.3137 36.3665C9.59793 38.6411 4.92175 40.155 0.316895 40.1312L0.689405 38.2132C5.19122 38.4906 9.78022 36.7469 14.4009 34.385C19.0137 32.142 23.6503 29.2888 28.1442 29.8277L28.049 31.8805Z" fill="white"/>
<path id="Vector_9" d="M21.7884 36.6038C18.8955 37.6341 15.9868 39.0925 13.086 40.2179C9.41634 41.7079 5.7705 42.667 2.14844 43.1821L2.5051 41.3751C6.03205 41.0026 9.59071 39.8929 13.1731 38.292C16.074 37.0397 18.9906 35.4704 21.8835 34.4242L21.7884 36.6117V36.6038Z" fill="white"/>
<path id="Vector_10" d="M26.3608 3.67281L26.2816 5.38476C23.6582 5.82068 21.0189 6.66081 18.3638 7.75456L18.451 5.86823C21.0981 4.88544 23.7374 4.14835 26.3608 3.67281Z" fill="white"/>
<path id="Vector_11" d="M21.987 1.75489C23.2392 1.42993 24.4994 1.13668 25.7517 0.827576C25.7517 1.37445 25.7438 1.93718 25.7358 2.4999C24.4598 2.7773 23.1838 3.08641 21.9077 3.45099L21.987 1.75489Z" fill="white"/>
<path id="Vector_12" d="M27.6451 18.0269C22.5647 17.7733 17.302 21.5143 12.0869 24.2486L12.1741 22.2434C17.3892 19.5091 22.644 15.887 27.7323 16.101C27.7006 16.7351 27.6768 17.377 27.6451 18.0269Z" fill="white"/>
</g>
<g id="Group_2">
<g id="Group_3">
<path id="Vector_13" d="M35.8727 32.0313H34.5095L34.2242 32.6733H33.8438L35.0009 30.1133H35.3655L36.5306 32.6733H36.1501L35.8648 32.0313H35.8727ZM35.7459 31.7381L35.1911 30.4858L34.6363 31.7381H35.738H35.7459Z" fill="white"/>
<path id="Vector_14" d="M39.4323 32.9028C39.353 32.9979 39.25 33.0772 39.1469 33.1247C39.036 33.1723 38.9171 33.204 38.7903 33.204C38.6318 33.204 38.4812 33.1644 38.3385 33.0851C38.1958 33.0059 38.0373 32.879 37.855 32.6888C37.6173 32.673 37.3953 32.6096 37.2051 32.4986C37.0149 32.3797 36.8564 32.2291 36.7533 32.031C36.6424 31.8408 36.5869 31.6188 36.5869 31.389C36.5869 31.1592 36.6424 30.9214 36.7613 30.7232C36.8802 30.5251 37.0387 30.3666 37.2527 30.2556C37.4667 30.1447 37.6965 30.0892 37.9501 30.0892C38.2038 30.0892 38.4415 30.1447 38.6476 30.2556C38.8537 30.3666 39.0201 30.5251 39.1311 30.7232C39.25 30.9214 39.3054 31.1433 39.3054 31.3969C39.3054 31.603 39.2658 31.8011 39.1786 31.9755C39.0914 32.1499 38.9726 32.3005 38.822 32.4193C38.6714 32.5382 38.497 32.6254 38.2989 32.665C38.3861 32.7522 38.4653 32.8236 38.5446 32.8632C38.6238 32.9028 38.7031 32.9266 38.7903 32.9266C38.9726 32.9266 39.1231 32.8553 39.2579 32.7047L39.4323 32.9107V32.9028ZM37.0862 31.8883C37.1734 32.0389 37.2923 32.1578 37.4429 32.245C37.5935 32.3322 37.7678 32.3718 37.9501 32.3718C38.1324 32.3718 38.3068 32.3322 38.4574 32.245C38.608 32.1578 38.7269 32.0389 38.814 31.8883C38.9012 31.7377 38.9409 31.5713 38.9409 31.389C38.9409 31.2067 38.9012 31.0323 38.814 30.8897C38.7269 30.7391 38.608 30.6202 38.4574 30.533C38.3068 30.4458 38.1404 30.4062 37.9501 30.4062C37.7599 30.4062 37.5935 30.4458 37.4429 30.533C37.2923 30.6202 37.1734 30.7391 37.0862 30.8897C36.9991 31.0403 36.9594 31.2067 36.9594 31.389C36.9594 31.5713 36.9991 31.7457 37.0862 31.8883Z" fill="white"/>
<path id="Vector_15" d="M40.0661 32.4036C39.8759 32.2055 39.7808 31.9281 39.7808 31.5635V30.1052H40.1454V31.5476C40.1454 32.0945 40.3831 32.3719 40.8666 32.3719C41.1044 32.3719 41.2787 32.3006 41.4055 32.1658C41.5324 32.0311 41.5957 31.825 41.5957 31.5476V30.1052H41.9524V31.5635C41.9524 31.9281 41.8573 32.2134 41.6671 32.4036C41.4769 32.5938 41.2153 32.6969 40.8666 32.6969C40.5179 32.6969 40.2563 32.6018 40.0661 32.4036Z" fill="white"/>
<path id="Vector_16" d="M42.6323 30.1052H42.9969V32.6652H42.6323V30.1052Z" fill="white"/>
<path id="Vector_17" d="M45.265 30.4222H44.3853V30.1052H46.5014V30.4222H45.6217V32.6652H45.2571V30.4222H45.265Z" fill="white"/>
<path id="Vector_18" d="M48.7194 32.3481V32.6652H46.8647V30.1052H48.6718V30.4222H47.2293V31.2068H48.5133V31.5159H47.2293V32.3402H48.7194V32.3481Z" fill="white"/>
<path id="Vector_19" d="M51.5895 32.6652V30.8026L50.6622 32.3561H50.4958L49.5685 30.8105V32.6652H49.2197V30.1052H49.5209L50.5909 31.9043L51.645 30.1052H51.9462V32.6652H51.5974H51.5895Z" fill="white"/>
<path id="Vector_20" d="M54.1415 30.5886H53.3252V30.1052H55.5523V30.5886H54.736V32.6652H54.1415V30.5886Z" fill="white"/>
<path id="Vector_21" d="M57.4784 32.6652L56.987 31.9519H56.4401V32.6652H55.8457V30.1052H56.9553C57.1851 30.1052 57.3754 30.1448 57.5497 30.2161C57.7241 30.2875 57.843 30.3984 57.9381 30.5411C58.0253 30.6837 58.0728 30.8423 58.0728 31.0325C58.0728 31.2227 58.0253 31.3891 57.9381 31.5239C57.843 31.6586 57.7162 31.7696 57.5497 31.8409L58.1204 32.6652H57.4863H57.4784ZM57.3278 30.6996C57.2327 30.6203 57.098 30.5807 56.9236 30.5807H56.4401V31.4763H56.9236C57.098 31.4763 57.2406 31.4367 57.3278 31.3574C57.4229 31.2782 57.4705 31.1672 57.4705 31.0245C57.4705 30.8819 57.4229 30.7709 57.3278 30.6917V30.6996Z" fill="white"/>
<path id="Vector_22" d="M60.3146 32.1183H59.1258L58.8959 32.6652H58.2856L59.4269 30.1052H60.0134L61.1548 32.6652H60.5365L60.3067 32.1183H60.3146ZM60.1244 31.6665L59.7202 30.6837L59.316 31.6665H60.1244Z" fill="white"/>
<path id="Vector_23" d="M63.6538 31.5716C63.733 31.6826 63.7806 31.8173 63.7806 31.9759C63.7806 32.1978 63.6934 32.3721 63.519 32.491C63.3447 32.6099 63.091 32.6733 62.7582 32.6733H61.4346V30.1133H62.6868C62.9959 30.1133 63.2416 30.1767 63.4081 30.2956C63.5745 30.4145 63.6617 30.5809 63.6617 30.7791C63.6617 30.9059 63.63 31.0168 63.5745 31.112C63.5111 31.2071 63.4318 31.2863 63.3209 31.3418C63.4636 31.3894 63.5824 31.4686 63.6617 31.5716H63.6538ZM62.0211 30.5572V31.1595H62.6076C62.7502 31.1595 62.8612 31.1357 62.9405 31.0802C63.0197 31.0327 63.0514 30.9534 63.0514 30.8504C63.0514 30.7474 63.0118 30.676 62.9405 30.6285C62.8612 30.5809 62.7502 30.5572 62.6076 30.5572H62.0211ZM63.0673 32.1502C63.1465 32.1027 63.1862 32.0234 63.1862 31.9125C63.1862 31.6985 63.0276 31.5954 62.7106 31.5954H62.0211V32.2295H62.7106C62.8691 32.2295 62.988 32.2057 63.0673 32.1502Z" fill="white"/>
<path id="Vector_24" d="M65.8859 32.1183H64.6971L64.4672 32.6652H63.8569L64.9982 30.1052H65.5847L66.726 32.6652H66.1078L65.878 32.1183H65.8859ZM65.6957 31.6665L65.2915 30.6837L64.8873 31.6665H65.6957Z" fill="white"/>
<path id="Vector_25" d="M67.0044 30.1052H67.5988V32.1817H68.8828V32.6652H67.0044V30.1052Z" fill="white"/>
<path id="Vector_26" d="M71.5307 30.1052V32.6652H70.9363V31.619H69.7712V32.6652H69.1768V30.1052H69.7712V31.1117H70.9363V30.1052H71.5307Z" fill="white"/>
<path id="Vector_27" d="M72.6562 32.5384C72.4422 32.4274 72.2758 32.2689 72.1569 32.0628C72.038 31.8568 71.9746 31.6348 71.9746 31.3812C71.9746 31.1276 72.038 30.9057 72.1569 30.6996C72.2758 30.4935 72.4422 30.3429 72.6562 30.224C72.8702 30.1131 73.108 30.0497 73.3775 30.0497C73.6469 30.0497 73.8847 30.1052 74.0908 30.224C74.3048 30.335 74.4712 30.4935 74.5901 30.6996C74.709 30.8977 74.7724 31.1276 74.7724 31.3812C74.7724 31.6348 74.709 31.8568 74.5901 32.0628C74.4712 32.261 74.3048 32.4195 74.0908 32.5384C73.8768 32.6493 73.639 32.7127 73.3775 32.7127C73.1159 32.7127 72.8702 32.6572 72.6562 32.5384ZM73.7817 32.1024C73.9006 32.0311 73.9957 31.936 74.067 31.8092C74.1383 31.6824 74.17 31.5397 74.17 31.3812C74.17 31.2227 74.1383 31.08 74.067 30.9532C73.9957 30.8264 73.9006 30.7313 73.7817 30.66C73.6628 30.5886 73.5201 30.5569 73.3695 30.5569C73.219 30.5569 73.0842 30.5886 72.9574 30.66C72.8385 30.7313 72.7434 30.8264 72.6721 30.9532C72.6007 31.08 72.569 31.2227 72.569 31.3812C72.569 31.5397 72.6007 31.6824 72.6721 31.8092C72.7434 31.936 72.8385 32.0311 72.9574 32.1024C73.0763 32.1738 73.219 32.2055 73.3695 32.2055C73.5201 32.2055 73.6549 32.1738 73.7817 32.1024Z" fill="white"/>
<path id="Vector_28" d="M75.0489 32.6176C75.0013 32.5701 74.9775 32.5067 74.9775 32.4354C74.9775 32.364 75.0013 32.3085 75.0489 32.261C75.0964 32.2134 75.1598 32.1897 75.2232 32.1897C75.2866 32.1897 75.35 32.2134 75.3976 32.261C75.4452 32.3085 75.4689 32.364 75.4689 32.4433C75.4689 32.5225 75.4452 32.578 75.3976 32.6256C75.35 32.6731 75.2946 32.6969 75.2312 32.6969C75.1678 32.6969 75.1043 32.6731 75.0568 32.6256L75.0489 32.6176Z" fill="white"/>
<path id="Vector_29" d="M35.8727 36.2637H34.5095L34.2242 36.9057H33.8438L35.0009 34.3456H35.3655L36.5306 36.9057H36.1501L35.8648 36.2637H35.8727ZM35.7459 35.9704L35.1911 34.7182L34.6363 35.9704H35.738H35.7459Z" fill="white"/>
<path id="Vector_30" d="M39.4323 37.1354C39.353 37.2305 39.25 37.3098 39.1469 37.3573C39.036 37.4049 38.9171 37.4366 38.7903 37.4366C38.6318 37.4366 38.4812 37.3969 38.3385 37.3177C38.1958 37.2384 38.0373 37.1116 37.855 36.9214C37.6173 36.9055 37.3953 36.8421 37.2051 36.7312C37.0149 36.6123 36.8564 36.4617 36.7533 36.2636C36.6424 36.0733 36.5869 35.8514 36.5869 35.6216C36.5869 35.3917 36.6424 35.154 36.7613 34.9558C36.8802 34.7577 37.0387 34.5992 37.2527 34.4882C37.4667 34.3772 37.6965 34.3218 37.9501 34.3218C38.2038 34.3218 38.4415 34.3772 38.6476 34.4882C38.8537 34.5992 39.0201 34.7577 39.1311 34.9558C39.25 35.154 39.3054 35.3759 39.3054 35.6295C39.3054 35.8356 39.2658 36.0337 39.1786 36.2081C39.0914 36.3824 38.9726 36.533 38.822 36.6519C38.6714 36.7708 38.497 36.858 38.2989 36.8976C38.3861 36.9848 38.4653 37.0561 38.5446 37.0958C38.6238 37.1354 38.7031 37.1592 38.7903 37.1592C38.9726 37.1592 39.1231 37.0878 39.2579 36.9372L39.4323 37.1433V37.1354ZM37.0862 36.1209C37.1734 36.2715 37.2923 36.3904 37.4429 36.4776C37.5935 36.5647 37.7678 36.6044 37.9501 36.6044C38.1324 36.6044 38.3068 36.5647 38.4574 36.4776C38.608 36.3904 38.7269 36.2715 38.814 36.1209C38.9012 35.9703 38.9409 35.8039 38.9409 35.6216C38.9409 35.4393 38.9012 35.2649 38.814 35.1223C38.7269 34.9717 38.608 34.8528 38.4574 34.7656C38.3068 34.6784 38.1404 34.6388 37.9501 34.6388C37.7599 34.6388 37.5935 34.6784 37.4429 34.7656C37.2923 34.8528 37.1734 34.9717 37.0862 35.1223C36.9991 35.2728 36.9594 35.4393 36.9594 35.6216C36.9594 35.8039 36.9991 35.9782 37.0862 36.1209Z" fill="white"/>
<path id="Vector_31" d="M40.0661 36.6362C39.8759 36.438 39.7808 36.1606 39.7808 35.7961V34.3377H40.1454V35.7802C40.1454 36.3271 40.3831 36.6045 40.8666 36.6045C41.1044 36.6045 41.2787 36.5332 41.4055 36.3984C41.5324 36.2637 41.5957 36.0576 41.5957 35.7802V34.3377H41.9524V35.7961C41.9524 36.1606 41.8573 36.446 41.6671 36.6362C41.4769 36.8264 41.2153 36.9294 40.8666 36.9294C40.5179 36.9294 40.2563 36.8343 40.0661 36.6362Z" fill="white"/>
<path id="Vector_32" d="M42.6323 34.3377H42.9969V36.8977H42.6323V34.3377Z" fill="white"/>
<path id="Vector_33" d="M45.265 34.6548H44.3853V34.3377H46.5014V34.6548H45.6217V36.8977H45.2571V34.6548H45.265Z" fill="white"/>
<path id="Vector_34" d="M48.7194 36.5807V36.8977H46.8647V34.3377H48.6718V34.6548H47.2293V35.4394H48.5133V35.7485H47.2293V36.5728H48.7194V36.5807Z" fill="white"/>
<path id="Vector_35" d="M51.5895 36.8977V35.0352L50.6622 36.5886H50.4958L49.5685 35.0431V36.8977H49.2197V34.3377H49.5209L50.5909 36.1369L51.645 34.3377H51.9462V36.8977H51.5974H51.5895Z" fill="white"/>
<path id="Vector_36" d="M54.2053 34.8133V35.487H55.3862V35.9625H54.2053V36.8977H53.6108V34.3377H55.5447V34.8133H54.2053Z" fill="white"/>
<path id="Vector_37" d="M56.2178 36.6441C56.0117 36.438 55.9087 36.1527 55.9087 35.7802V34.3456H56.5031V35.7564C56.5031 36.2161 56.6933 36.446 57.0738 36.446C57.2561 36.446 57.3987 36.3905 57.5018 36.2795C57.5969 36.1686 57.6444 35.9942 57.6444 35.7564V34.3456H58.2309V35.7802C58.2309 36.1527 58.1279 36.446 57.9218 36.6441C57.7158 36.8502 57.4304 36.9453 57.0658 36.9453C56.7013 36.9453 56.4159 36.8423 56.2099 36.6441H56.2178Z" fill="white"/>
<path id="Vector_38" d="M59.3344 34.8212H58.5181V34.3377H60.7452V34.8212H59.9288V36.8977H59.3344V34.8212Z" fill="white"/>
<path id="Vector_39" d="M61.3394 36.6441C61.1333 36.438 61.0303 36.1527 61.0303 35.7802V34.3456H61.6247V35.7564C61.6247 36.2161 61.8149 36.446 62.1954 36.446C62.3776 36.446 62.5203 36.3905 62.6234 36.2795C62.7185 36.1686 62.766 35.9942 62.766 35.7564V34.3456H63.3525V35.7802C63.3525 36.1527 63.2495 36.446 63.0434 36.6441C62.8373 36.8502 62.552 36.9453 62.1874 36.9453C61.8229 36.9453 61.5375 36.8423 61.3315 36.6441H61.3394Z" fill="white"/>
<path id="Vector_40" d="M65.5634 36.8977L65.072 36.1844H64.5251V36.8977H63.9307V34.3377H65.0403C65.2701 34.3377 65.4603 34.3774 65.6347 34.4487C65.8091 34.52 65.9279 34.631 66.0231 34.7736C66.1102 34.9163 66.1578 35.0748 66.1578 35.265C66.1578 35.4553 66.1102 35.6217 66.0231 35.7564C65.9279 35.8912 65.8011 36.0021 65.6347 36.0735L66.2053 36.8977H65.5713H65.5634ZM65.4128 34.9322C65.3177 34.8529 65.1829 34.8133 65.0086 34.8133H64.5251V35.7089H65.0086C65.1829 35.7089 65.3256 35.6693 65.4128 35.59C65.5079 35.5107 65.5554 35.3998 65.5554 35.2571C65.5554 35.1145 65.5079 35.0035 65.4128 34.9242V34.9322Z" fill="white"/>
<path id="Vector_41" d="M67.1245 36.771C66.9105 36.66 66.744 36.5015 66.6252 36.2954C66.5063 36.0894 66.4429 35.8674 66.4429 35.6138C66.4429 35.3602 66.5063 35.1383 66.6252 34.9322C66.744 34.7261 66.9105 34.5756 67.1245 34.4567C67.3385 34.3457 67.5763 34.2823 67.8457 34.2823C68.1152 34.2823 68.353 34.3378 68.559 34.4567C68.773 34.5676 68.9395 34.7261 69.0584 34.9322C69.1773 35.1304 69.2407 35.3602 69.2407 35.6138C69.2407 35.8674 69.1773 36.0894 69.0584 36.2954C68.9395 36.4936 68.773 36.6521 68.559 36.771C68.345 36.8819 68.1073 36.9453 67.8457 36.9453C67.5842 36.9453 67.3385 36.8899 67.1245 36.771ZM68.2499 36.3351C68.3688 36.2637 68.4639 36.1686 68.5353 36.0418C68.6066 35.915 68.6383 35.7723 68.6383 35.6138C68.6383 35.4553 68.6066 35.3126 68.5353 35.1858C68.4639 35.059 68.3688 34.9639 68.2499 34.8926C68.1311 34.8213 67.9884 34.7895 67.8378 34.7895C67.6872 34.7895 67.5525 34.8213 67.4257 34.8926C67.3068 34.9639 67.2117 35.059 67.1403 35.1858C67.069 35.3126 67.0373 35.4553 67.0373 35.6138C67.0373 35.7723 67.069 35.915 67.1403 36.0418C67.2117 36.1686 67.3068 36.2637 67.4257 36.3351C67.5446 36.4064 67.6872 36.4381 67.8378 36.4381C67.9884 36.4381 68.1231 36.4064 68.2499 36.3351Z" fill="white"/>
<path id="Vector_42" d="M69.5176 36.8503C69.4701 36.8027 69.4463 36.7393 69.4463 36.668C69.4463 36.5966 69.4701 36.5412 69.5176 36.4936C69.5652 36.4461 69.6286 36.4223 69.692 36.4223C69.7554 36.4223 69.8188 36.4461 69.8664 36.4936C69.9139 36.5412 69.9377 36.5966 69.9377 36.6759C69.9377 36.7552 69.9139 36.8106 69.8664 36.8582C69.8188 36.9057 69.7633 36.9295 69.6999 36.9295C69.6365 36.9295 69.5731 36.9057 69.5256 36.8582L69.5176 36.8503Z" fill="white"/>
</g>
<path id="Vector_43" d="M35.2681 12.0426C35.4821 11.9238 35.7278 11.8683 35.9973 11.8683C36.4173 11.8683 36.774 12.0189 37.0752 12.3121L37.5349 11.8683C37.3526 11.6622 37.1306 11.5037 36.8612 11.3927C36.5917 11.2818 36.2984 11.2342 35.9735 11.2342C35.5693 11.2342 35.2126 11.3214 34.8877 11.4958C34.5706 11.6701 34.317 11.9079 34.1347 12.2091C33.9524 12.5103 33.8652 12.859 33.8652 13.2394C33.8652 13.6199 33.9524 13.9686 34.1347 14.2698C34.317 14.571 34.5706 14.8087 34.8877 14.9831C35.2047 15.1575 35.5613 15.2446 35.9576 15.2446C36.243 15.2446 36.5124 15.205 36.7819 15.1178C37.0514 15.0306 37.2812 14.9118 37.4794 14.7532V13.1998H36.7978V14.4124C36.5679 14.5472 36.2984 14.6106 35.9973 14.6106C35.7278 14.6106 35.4821 14.5551 35.2681 14.4362C35.0541 14.3173 34.8877 14.1509 34.7688 13.9448C34.6499 13.7388 34.5865 13.501 34.5865 13.2474C34.5865 12.9937 34.6499 12.7401 34.7688 12.534C34.8877 12.328 35.0541 12.1615 35.2681 12.0506V12.0426Z" fill="white"/>
<path id="Vector_44" d="M41.5468 11.4958C41.2297 11.3214 40.8731 11.2342 40.4689 11.2342C40.0646 11.2342 39.7159 11.3214 39.3989 11.4958C39.0819 11.6701 38.8282 11.9079 38.6459 12.217C38.4637 12.5261 38.3765 12.8669 38.3765 13.2474C38.3765 13.6278 38.4637 13.9686 38.6459 14.2777C38.8282 14.5868 39.0819 14.8246 39.3989 14.9989C39.7159 15.1733 40.0726 15.2605 40.4689 15.2605C40.8651 15.2605 41.2218 15.1733 41.5468 14.9989C41.8638 14.8246 42.1174 14.5868 42.2997 14.2856C42.482 13.9844 42.5692 13.6357 42.5692 13.2553C42.5692 12.8748 42.482 12.5261 42.2997 12.2249C42.1174 11.9238 41.8638 11.686 41.5468 11.5116V11.4958ZM41.6657 13.9448C41.5468 14.1509 41.3803 14.3173 41.1742 14.4362C40.9682 14.5551 40.7304 14.6106 40.4768 14.6106C40.2232 14.6106 39.9854 14.5551 39.7793 14.4362C39.5733 14.3173 39.4068 14.1588 39.2879 13.9448C39.169 13.7388 39.1136 13.501 39.1136 13.2394C39.1136 12.9779 39.169 12.748 39.2879 12.534C39.4068 12.328 39.5733 12.1615 39.7793 12.0426C39.9854 11.9238 40.2232 11.8683 40.4768 11.8683C40.7304 11.8683 40.9682 11.9238 41.1742 12.0426C41.3803 12.1615 41.5468 12.32 41.6657 12.534C41.7845 12.7401 41.84 12.9779 41.84 13.2394C41.84 13.501 41.7845 13.7308 41.6657 13.9448Z" fill="white"/>
<path id="Vector_45" d="M44.9697 14.2936L43.6699 11.2897H42.8853L44.5893 15.1892H45.3026L46.9987 11.2897H46.2775L44.9697 14.2936Z" fill="white"/>
<path id="Vector_46" d="M48.3555 13.5089H50.2418V12.9145H48.3555V11.9H50.4796V11.2897H47.6343V15.1892H50.5589V14.5789H48.3555V13.5089Z" fill="white"/>
<path id="Vector_47" d="M54.6333 13.4376C54.776 13.2236 54.8473 12.97 54.8473 12.6846C54.8473 12.3993 54.7839 12.1536 54.6492 11.9476C54.5144 11.7415 54.3242 11.583 54.0706 11.472C53.817 11.3611 53.5237 11.3056 53.1908 11.3056H51.5898V15.1971H52.3111V14.0637H53.1908C53.2543 14.0637 53.3097 14.0637 53.3414 14.0637L54.134 15.205H54.9107L54.0151 13.929C54.2846 13.826 54.4907 13.6674 54.6333 13.4534V13.4376ZM53.1591 13.4614H52.3111V11.9079H53.1591C53.4762 11.9079 53.7139 11.9713 53.8804 12.1061C54.0468 12.2408 54.1261 12.431 54.1261 12.6767C54.1261 12.9224 54.0468 13.1206 53.8804 13.2553C53.7139 13.39 53.4762 13.4614 53.1591 13.4614Z" fill="white"/>
<path id="Vector_48" d="M58.6198 13.929L56.4719 11.2897H55.8774V15.1892H56.5908V12.5499L58.7386 15.1892H59.3331V11.2897H58.6198V13.929Z" fill="white"/>
<path id="Vector_49" d="M63.5009 11.4958C63.1838 11.3214 62.8272 11.2342 62.423 11.2342C62.0188 11.2342 61.67 11.3214 61.353 11.4958C61.036 11.6701 60.7823 11.9079 60.6001 12.217C60.4178 12.5261 60.3306 12.8669 60.3306 13.2474C60.3306 13.6278 60.4178 13.9686 60.6001 14.2777C60.7823 14.5868 61.036 14.8246 61.353 14.9989C61.67 15.1733 62.0267 15.2605 62.423 15.2605C62.8193 15.2605 63.1759 15.1733 63.5009 14.9989C63.8179 14.8246 64.0715 14.5868 64.2538 14.2856C64.4361 13.9844 64.5233 13.6357 64.5233 13.2553C64.5233 12.8748 64.4361 12.5261 64.2538 12.2249C64.0715 11.9238 63.8179 11.686 63.5009 11.5116V11.4958ZM63.6198 13.9448C63.5009 14.1509 63.3344 14.3173 63.1284 14.4362C62.9223 14.5551 62.6845 14.6106 62.4309 14.6106C62.1773 14.6106 61.9395 14.5551 61.7334 14.4362C61.5274 14.3173 61.3609 14.1588 61.242 13.9448C61.1231 13.7388 61.0677 13.501 61.0677 13.2394C61.0677 12.9779 61.1231 12.748 61.242 12.534C61.3609 12.328 61.5274 12.1615 61.7334 12.0426C61.9395 11.9238 62.1773 11.8683 62.4309 11.8683C62.6845 11.8683 62.9223 11.9238 63.1284 12.0426C63.3344 12.1615 63.5009 12.32 63.6198 12.534C63.7386 12.7401 63.7941 12.9779 63.7941 13.2394C63.7941 13.501 63.7386 13.7308 63.6198 13.9448Z" fill="white"/>
<path id="Vector_50" d="M70.0793 11.5354C69.7543 11.3769 69.3897 11.2897 68.9697 11.2897H67.2656V15.1813H68.9697C69.3818 15.1813 69.7543 15.102 70.0793 14.9356C70.4042 14.7771 70.6499 14.5472 70.8322 14.254C71.0066 13.9607 71.1017 13.6199 71.1017 13.2315C71.1017 12.8432 71.0145 12.5024 70.8322 12.2091C70.6578 11.9159 70.4042 11.686 70.0793 11.5275V11.5354ZM70.1902 13.9449C70.0713 14.1509 69.9049 14.3015 69.6909 14.4125C69.4769 14.5234 69.2233 14.5789 68.938 14.5789H67.9948V11.9079H68.938C69.2233 11.9079 69.4769 11.9634 69.6909 12.0744C69.9049 12.1853 70.0713 12.3359 70.1902 12.542C70.3091 12.7481 70.3646 12.9779 70.3646 13.2474C70.3646 13.5169 70.3091 13.7467 70.1902 13.9528V13.9449Z" fill="white"/>
<path id="Vector_51" d="M75.7304 12.2091C75.5481 11.9079 75.2945 11.6701 74.9774 11.4958C74.6604 11.3214 74.3037 11.2342 73.8995 11.2342C73.4953 11.2342 73.1466 11.3214 72.8295 11.4958C72.5125 11.6701 72.2589 11.9079 72.0766 12.217C71.8943 12.5261 71.8071 12.8669 71.8071 13.2474C71.8071 13.6278 71.8943 13.9686 72.0766 14.2777C72.2589 14.5868 72.5125 14.8246 72.8295 14.9989C73.1466 15.1733 73.5032 15.2605 73.8995 15.2605C74.2958 15.2605 74.6525 15.1733 74.9774 14.9989C75.2945 14.8246 75.5481 14.5868 75.7304 14.2856C75.9127 13.9844 75.9998 13.6357 75.9998 13.2553C75.9998 12.8748 75.9127 12.5261 75.7304 12.2249V12.2091ZM75.0963 13.9448C74.9774 14.1509 74.811 14.3173 74.6049 14.4362C74.3988 14.5551 74.1611 14.6106 73.9074 14.6106C73.6538 14.6106 73.416 14.5551 73.21 14.4362C73.0039 14.3173 72.8375 14.1588 72.7186 13.9448C72.5997 13.7388 72.5442 13.501 72.5442 13.2394C72.5442 12.9779 72.5997 12.748 72.7186 12.534C72.8375 12.328 73.0039 12.1615 73.21 12.0426C73.416 11.9238 73.6538 11.8683 73.9074 11.8683C74.1611 11.8683 74.3988 11.9238 74.6049 12.0426C74.811 12.1615 74.9774 12.32 75.0963 12.534C75.2152 12.7401 75.2707 12.9779 75.2707 13.2394C75.2707 13.501 75.2152 13.7308 75.0963 13.9448Z" fill="white"/>
<g id="Group_4">
<path id="Vector_52" d="M41.6889 17.2416C42.4419 17.5824 43.0204 18.0659 43.4326 18.692C43.8447 19.3182 44.0429 20.0632 44.0429 20.9112C44.0429 21.7593 43.8368 22.4964 43.4326 23.1225C43.0204 23.7487 42.4419 24.2321 41.6889 24.565C40.936 24.9058 40.0483 25.0723 39.0259 25.0723H37.0603V28.0286H33.8662V16.7265H39.0338C40.0562 16.7265 40.9439 16.8929 41.6968 17.2337L41.6889 17.2416ZM40.3178 22.1318C40.6506 21.8465 40.8171 21.4423 40.8171 20.9112C40.8171 20.3802 40.6506 19.976 40.3178 19.6828C39.9849 19.3895 39.4856 19.2468 38.8357 19.2468H37.0603V22.5598H38.8357C39.4935 22.5598 39.9849 22.4171 40.3178 22.1318Z" fill="white"/>
<path id="Vector_53" d="M44.6221 16.7345H47.8161V28.0366H44.6221V16.7345Z" fill="white"/>
<path id="Vector_54" d="M57.3497 25.8412H52.5704L51.6828 28.0366H48.4253L53.4106 16.7345H56.5571L61.5582 28.0366H58.2294L57.3417 25.8412H57.3497ZM56.4144 23.4873L54.964 19.8731L53.5136 23.4873H56.4224H56.4144Z" fill="white"/>
<path id="Vector_55" d="M62.2323 26.8874C61.305 25.9759 60.8374 24.6761 60.8374 22.9959V16.7345H64.0315V22.9007C64.0315 24.7078 64.7448 25.6113 66.1793 25.6113C67.6139 25.6113 68.3114 24.7078 68.3114 22.9007V16.7345H71.4579V22.9959C71.4579 24.6761 70.9903 25.968 70.063 26.8874C69.1356 27.7988 67.8279 28.2585 66.1476 28.2585C64.4674 28.2585 63.1596 27.7988 62.2323 26.8874Z" fill="white"/>
<path id="Vector_56" d="M75.5241 16.7345H72.3301V18.7873L75.5241 16.7345Z" fill="white"/>
<path id="Vector_57" d="M72.3301 19.715V28.037H75.5241V17.6623L72.3301 19.715Z" fill="white"/>
</g>
<path id="Vector_58" d="M37.4734 13.191H36.1895V13.7616H37.4734V13.191Z" fill="white"/>
</g>
</g>
</svg>
